<?xml version="1.0" standalone="no"?>
<!DOCTYPE svg PUBLIC "-//W3C//DTD SVG 20010904//EN"
 "http://www.w3.org/TR/2001/REC-SVG-20010904/DTD/svg10.dtd">
<svg version="1.0" xmlns="http://www.w3.org/2000/svg"
 width="114.000000pt" height="114.000000pt" viewBox="0 0 114.000000 114.000000"
 preserveAspectRatio="xMidYMid meet">
<metadata>
Created by potrace 1.11, written by Peter Selinger 2001-2013
</metadata>
<g transform="translate(0.000000,114.000000) scale(0.100000,-0.100000)"
fill="#000000" stroke="none">
<path d="M0 570 l0 -570 570 0 570 0 0 570 0 570 -570 0 -570 0 0 -570z m656
411 c39 -11 77 -28 84 -36 7 -8 21 -15 31 -15 17 0 17 -2 -2 -35 -11 -19 -17
-40 -13 -46 5 -8 9 -7 16 5 10 17 48 22 48 6 0 -5 -4 -10 -10 -10 -5 0 -10 -5
-10 -11 0 -5 5 -7 10 -4 6 3 10 2 10 -4 0 -5 38 -22 85 -37 47 -15 85 -30 85
-33 0 -3 -14 -12 -31 -20 -60 -26 -154 -178 -214 -344 -17 -49 -35 -89 -39
-89 -4 -1 -70 23 -148 52 -102 39 -142 59 -148 74 -9 21 -9 21 -9 -1 -1 -13
-5 -23 -11 -23 -5 0 -21 -12 -34 -27 l-26 -28 -130 65 c-71 35 -130 68 -130
72 0 4 21 21 47 39 l46 32 -39 20 c-21 11 -41 21 -43 23 -10 9 34 44 55 44 14
0 25 8 29 20 3 11 12 20 19 20 6 0 68 -24 137 -54 l124 -53 12 29 c7 17 10 34
7 39 -8 14 -45 11 -58 -5 -9 -11 -34 -4 -144 42 -72 30 -132 60 -132 67 0 17
26 26 55 19 16 -4 26 0 33 11 8 16 22 13 146 -35 132 -51 137 -53 151 -34 19
25 19 48 0 64 -10 8 -19 9 -27 3 -11 -9 -112 23 -282 90 -5 2 -6 9 -2 15 5 9
13 9 27 1 11 -6 35 -11 52 -11 28 -1 262 -80 275 -93 12 -11 50 37 45 56 -4
15 -2 18 11 13 9 -3 14 -10 11 -14 -3 -5 6 -3 20 3 20 10 25 19 25 48 0 49
-11 56 -25 17 -11 -34 -14 -35 -51 -24 -17 5 -23 2 -28 -17 l-6 -25 -132 43
c-130 41 -133 42 -133 71 0 16 5 28 10 27 6 -1 22 -4 37 -8 23 -6 27 -3 33 25
7 31 9 32 45 26 22 -3 41 -2 45 3 3 6 29 2 63 -9 31 -10 89 -28 128 -39z m272
-488 c39 -15 43 -19 37 -42 -10 -48 -70 -154 -97 -174 -45 -33 -61 -18 -56 56
3 58 48 177 66 177 3 0 26 -7 50 -17z m-579 -153 c47 0 51 -9 23 -55 -16 -26
-33 -43 -40 -40 -7 3 -10 0 -7 -5 10 -16 29 -12 53 10 11 11 27 17 35 14 11
-4 10 -13 -7 -49 -12 -24 -25 -44 -29 -45 -4 0 -59 28 -122 63 -78 42 -115 68
-115 80 0 9 6 17 13 17 6 1 -5 10 -26 21 -34 18 -36 22 -26 42 26 49 26 49
130 -3 54 -28 107 -50 118 -50z m114 -118 c3 -4 -3 -22 -12 -40 -15 -29 -19
-31 -30 -18 -10 12 -9 20 4 40 17 26 30 32 38 18z m47 -23 c0 -5 -4 -9 -10 -9
-5 0 -10 7 -10 16 0 8 5 12 10 9 6 -3 10 -10 10 -16z"/>
<path d="M710 904 c-12 -36 -7 -56 9 -38 5 5 12 24 16 42 9 44 -10 42 -25 -4z"/>
<path d="M279 503 c79 -37 98 -43 118 -34 15 7 23 19 23 36 0 32 -24 33 -53 1
l-21 -24 -74 34 c-109 50 -103 40 7 -13z"/>
<path d="M170 325 c0 -2 23 -16 50 -30 28 -14 50 -23 50 -20 0 2 -22 16 -50
30 -27 14 -50 23 -50 20z"/>
</g>
</svg>
